#!OML:ASF I:\Actors\actors\Patient Classification 1\Patient 1\Session 1\Subject1.ASF
:FULLY-SPECIFIED
:DEGREES
308
root -0.392222 17.632 7.35759 11.3043 -2.5084 -9.84595
lowerback 10.5999 2.45273 1.20063
upperback -4.20419 3.547 0.691391
thorax -10.4577 1.65103 -0.620507
lowerneck -16.2673 -8.44258 -3.42448
upperneck 19.4125 -12.8025 8.42759
head 9.61798 -5.3285 1.73002
rclavicle 1.98785e-016 -1.59028e-015
rhumerus 13.3991 5.72657 -102.069
rradius 53.4752
rwrist 37.2992
rhand -7.68196 -68.6373
rfingers 7.12502
rthumb 18.2148 -262.196
lclavicle 1.98785e-016 -1.59028e-015
lhumerus 3.34583 -19.3375 86.3982
lradius 87.5468
lwrist 36.89
lhand -40.2582 -20.1676
lfingers 7.12502
lthumb -13.2167 9.39342
rfemur -11.9548 20.6898 23.5851
rtibia 6.25247
rfoot -8.79934 -20.7658
rtoes -0.495274
lfemur -1.57209 -45.8993 -6.74246
ltibia -3.76243
lfoot -25.5849 56.1315
ltoes 18.8267
309
root -0.377293 17.6337 7.34274 11.2622 -2.00406 -9.80811
lowerback 11.2536 2.37225 1.78699
upperback -4.28347 3.54326 0.669765
thorax -10.8987 1.59887 -1.00521
lowerneck -16.1781 -8.58003 -3.47513
upperneck 19.1655 -12.9654 8.47203
head 9.53257 -5.415 1.73428
rclavicle 2.26615e-014 -2.06736e-014
rhumerus 16.172 5.35404 -100.727
rradius 49.133
rwrist 35.888
rhand -7.86249 -69.5279
rfingers 7.12502
rthumb 18.0412 -261.289
lclavicle 2.26615e-014 -2.06736e-014
lhumerus 3.5539 -19.522 86.6906
lradius 86.9988
lwrist 36.8378
lhand -40.4722 -20.4308
lfingers 7.12502
lthumb -13.4229 9.11674
rfemur -11.8823 20.2581 23.5367
rtibia 6.14915
rfoot -8.80883 -20.8409
rtoes -0.273454
lfemur -1.75974 -46.6732 -6.73621
ltibia -3.63671
lfoot -25.6162 56.4183
ltoes 18.7965
310
root -0.364967 17.6348 7.32271 11.2786 -1.41884 -9.77648
lowerback 11.2334 2.17428 1.87892
upperback -3.93263 3.31399 0.99767
thorax -10.5163 1.50407 -0.648116
lowerneck -16.3065 -8.58309 -3.53518
upperneck 18.5239 -12.8519 8.36109
head 9.31974 -5.39783 1.72391
rclavicle 2.98177e-014 -2.3059e-014
rhumerus 19.0586 4.597 -99.96
rradius 45.6471
rwrist 35.158
rhand -6.4151 -70.4647
rfingers 7.12502
rthumb 19.4333 -260.486
lclavicle 2.98177e-014 -2.3059e-014
lhumerus 4.46444 -19.0556 86.9204
lradius 86.4053
lwrist 36.8227
lhand -40.4601 -20.3959
lfingers 7.12502
lthumb -13.4112 9.15237
rfemur -11.8888 19.7637 23.4984
rtibia 6.05165
rfoot -8.72351 -20.9562
rtoes -0.682261
lfemur -2.28252 -46.678 -6.47645
ltibia -3.47709
lfoot -24.418 56.1333
ltoes 17.8672
311
root -0.376323 17.6359 7.30914 11.383 -0.941674 -9.79864
lowerback 11.2576 2.10322 1.79349
upperback -3.74245 3.22941 1.28968
thorax -10.344 1.48388 -0.266808
lowerneck -16.4295 -8.69093 -3.68185
upperneck 18.0915 -12.9174 8.37609
head 9.20723 -5.4481 1.74132
rclavicle 4.59193e-014 3.81667e-014
rhumerus 21.3852 2.91069 -99.7246
rradius 42.7917
rwrist 35.2242
rhand -7.45552 -70.6135
rfingers 7.12502
rthumb 18.4327 -260.24
lclavicle 4.59193e-014 3.81667e-014
lhumerus 5.11459 -18.9117 87.0843
lradius 85.919
lwrist 36.8395
lhand -40.2454 -20.0949
lfingers 7.12502
lthumb -13.2043 9.46691
rfemur -12.0224 20.0965 23.4699
rtibia 5.99269
rfoot -8.81584 -21.7147
rtoes -0.408268
lfemur -2.94294 -46.4207 -5.84896
ltibia -3.50043
lfoot -23.217 55.7433
ltoes 17.0468
312
root -0.387507 17.6372 7.29666 11.4974 -0.579853 -9.82893
lowerback 11.3341 2.07566 1.84723
upperback -3.59659 3.21506 1.46015
thorax -10.2355 1.48182 -0.111376
lowerneck -16.5448 -8.82472 -3.7335
upperneck 17.7562 -13.0583 8.40841
head 9.12749 -5.52183 1.73829
rclavicle -1.42131e-014 4.69132e-014
rhumerus 23.5591 1.14159 -99.527
rradius 40.0895
rwrist 36.3933
rhand -7.88583 -70.1976
rfingers 7.12502
rthumb 18.0187 -260.617
lclavicle -1.42131e-014 4.69132e-014
lhumerus 5.71861 -18.9492 87.0437
lradius 85.4611
lwrist 36.7096
lhand -40.4679 -20.2874
lfingers 7.12502
lthumb -13.4188 9.26039
rfemur -12.1907 20.4977 23.4124
rtibia 5.9525
rfoot -9.00441 -22.4033
rtoes 0.456388
lfemur -3.45604 -46.3784 -5.26807
ltibia -3.6524
lfoot -22.4563 55.5629
ltoes 16.5903
